<svg xmlns="http://www.w3.org/2000/svg" version="1.0" preserveAspectRatio="xMidYMid meet" viewBox="266.1 96.7 105.21 224.82">

<g transform="translate(0.000000,496.000000) scale(0.100000,-0.100000)" fill="#000000" stroke="none">
<path d="M2811 3954 c121 -131 189 -268 189 -384 0 -103 -42 -198 -182 -408 -126 -189 -150 -245 -156 -353 -3 -71 0 -99 17 -150 22 -65 98 -196 86 -149 -3 14 -15 58 -25 99 -24 89 -25 128 -5 205 23 88 34 101 28 31 -13 -150 65 -314 234 -491 63 -66 206 -194 217 -194 4 0 -25 37 -65 82 -140 161 -220 312 -240 454 -18 132 3 221 111 460 90 199 103 244 98 353 -3 77 -7 96 -40 163 -42 83 -169 228 -254 287 l-49 34 36 -39z"/>
<path d="M3559 3693 c-73 -61 -191 -210 -230 -288 -74 -150 -82 -256 -39 -504 40 -228 16 -381 -86 -543 l-26 -41 55 48 c99 85 159 177 173 266 l8 44 17 -55 c32 -103 44 -213 31 -296 -26 -163 -105 -333 -229 -489 -81 -101 -81 -101 -46 -77 50 35 223 229 276 308 91 139 136 261 137 379 l1 60 14 -33 c40 -92 35 -214 -15 -319 -16 -35 -25 -63 -21 -63 12 0 88 112 113 166 17 39 21 68 21 144 1 119 -22 181 -144 396 -144 252 -174 341 -166 484 2 47 14 114 25 150 21 63 94 190 148 258 32 39 26 41 -17 5z"/>
<path d="M3220 3565 c-15 -19 1 -65 23 -65 18 0 56 29 39 30 -8 0 -12 9 -10 23 4 27 -32 36 -52 12z"/>
<!-- Letters --><!--
<path d="M2945 1533 c-64 -7 -76 -14 -91 -49 -13 -31 -13 -38 1 -68 9 -19 34
-48 56 -66 51 -41 65 -74 44 -106 -24 -38 -95 -25 -95 16 0 29 -17 24 -24 -6
-10 -39 9 -54 66 -54 41 0 54 5 79 29 48 48 41 83 -31 153 -46 46 -60 66 -60
89 0 22 6 30 25 35 33 8 56 -1 62 -26 8 -32 23 -23 23 14 0 37 -9 43 -55 39z"/> 
<path d="M1629 1517 c21 -10 32 -36 69 -165 28 -92 50 -152 58 -152 12 0 19
15 73 164 l28 79 23 -69 c43 -129 61 -174 73 -174 7 0 36 71 65 159 37 112 58
161 70 164 9 3 -8 5 -38 5 -30 0 -49 -2 -42 -5 6 -2 12 -11 12 -19 0 -23 -53
-204 -60 -204 -3 0 -23 52 -43 115 -21 63 -44 115 -50 115 -7 0 -32 -55 -56
-122 l-45 -123 -30 113 c-25 96 -27 115 -15 123 9 6 -9 9 -51 9 -58 0 -62 -2
-41 -13z"/>
<path d="M2143 1479 c15 -9 17 -26 17 -129 0 -103 -2 -120 -17 -129 -13 -8 6
-10 72 -8 85 2 90 3 93 25 4 25 -13 30 -22 7 -3 -9 -19 -15 -41 -15 l-35 0 0
55 c0 54 0 55 30 55 17 0 30 -4 30 -10 0 -5 5 -10 10 -10 6 0 10 11 10 25 0
24 -2 25 -40 19 l-40 -7 0 57 c0 55 0 56 29 56 17 0 31 -6 35 -16 8 -20 26 -9
26 17 0 17 -7 19 -87 19 -65 -1 -83 -3 -70 -11z"/>
<path d="M2395 1473 c14 -13 16 -34 13 -130 -2 -88 -6 -116 -18 -123 -10 -7 9
-10 60 -10 83 0 114 14 131 57 10 28 -10 77 -36 87 -14 5 -14 9 0 35 20 40 19
57 -5 81 -16 16 -33 20 -91 20 -65 0 -69 -1 -54 -17z m104 -17 c7 -8 11 -30 9
-48 -2 -28 -7 -34 -30 -36 -27 -3 -28 -2 -28 47 0 43 3 51 19 51 10 0 24 -6
30 -14z m-4 -116 c32 -12 50 -56 36 -88 -9 -19 -18 -23 -44 -20 -32 3 -32 4
-35 61 -3 60 0 63 43 47z"/>
<path d="M3093 1483 c15 -4 17 -19 17 -133 0 -93 -3 -130 -12 -133 -7 -3 12
-5 42 -5 30 0 47 2 38 5 -14 4 -18 15 -18 59 l0 54 35 0 c51 0 85 36 85 89 0
58 -24 71 -125 70 -44 -1 -72 -3 -62 -6z m126 -26 c6 -8 14 -28 17 -44 7 -35
-22 -73 -56 -73 -18 0 -20 7 -20 65 0 62 1 65 24 65 13 0 29 -6 35 -13z"/>
<path d="M3358 1483 c9 -3 12 -40 12 -133 0 -93 -3 -130 -12 -133 -7 -3 12 -6
42 -6 42 0 51 2 38 10 -16 9 -18 26 -18 134 0 109 2 124 18 128 9 3 -8 5 -38
5 -30 0 -49 -2 -42 -5z"/>
<path d="M3540 1356 c0 -98 -3 -136 -12 -139 -7 -3 12 -5 42 -6 43 0 50 2 33
9 -22 9 -23 15 -23 100 0 49 1 90 3 90 2 0 45 -47 96 -105 51 -58 99 -105 107
-105 11 0 14 26 14 139 0 124 2 140 18 144 9 3 -8 5 -38 5 -30 0 -48 -2 -38
-5 13 -3 18 -22 23 -87 4 -45 5 -91 4 -100 -3 -13 -30 10 -102 88 -54 58 -105
106 -113 106 -11 0 -14 -25 -14 -134z"/>
<path d="M3910 1360 c0 -112 -2 -130 -17 -139 -14 -8 -5 -10 37 -10 30 1 48 3
38 6 -13 3 -18 22 -23 88 -4 46 -5 89 -3 95 2 7 48 -36 102 -94 54 -58 104
-106 112 -106 11 0 14 27 14 139 0 102 3 141 13 144 6 3 -10 5 -38 5 -27 0
-42 -2 -32 -5 15 -4 17 -18 17 -105 l0 -100 -76 81 c-42 45 -85 92 -96 106
-11 14 -26 25 -34 25 -11 0 -14 -24 -14 -130z"/>
<path d="M4263 1483 c15 -4 17 -19 17 -133 0 -93 -3 -130 -12 -133 -7 -3 26
-6 75 -6 86 -1 87 -1 87 24 0 27 -15 34 -24 10 -3 -9 -19 -15 -41 -15 l-35 0
0 55 c0 54 0 55 29 55 16 0 32 -6 34 -12 4 -10 8 -9 16 2 23 32 13 42 -34 34
l-45 -6 0 56 c0 56 0 56 30 56 18 0 33 -6 36 -15 9 -24 24 -17 24 10 0 25 -1
25 -87 24 -49 -1 -80 -3 -70 -6z"/>
<path d="M4513 1479 c15 -9 17 -26 17 -129 0 -103 -2 -120 -17 -129 -14 -8 -3
-10 42 -10 33 0 53 3 45 6 -23 9 -30 24 -30 66 0 57 34 50 88 -19 41 -52 45
-54 90 -53 42 0 44 1 22 10 -29 12 -64 43 -92 82 -19 26 -19 29 -3 47 28 30
30 91 5 118 -18 19 -30 22 -103 22 -61 -1 -77 -3 -64 -11z m127 -28 c11 -22
13 -71 4 -95 -4 -10 -18 -16 -40 -16 l-34 0 0 65 0 65 30 0 c19 0 33 -7 40
-19z"/>
<path d="M2630 1321 c0 -17 4 -19 32 -10 18 5 47 9 65 9 17 0 35 5 38 10 4 6
-20 10 -64 10 -63 0 -71 -2 -71 -19z"/>-->
</g>
</svg>